<svg width="25" height="25" viewBox="0 0 25 25" fill="none" xmlns="http://www.w3.org/2000/svg">
<rect x="0.5" y="0.329956" width="24" height="24" rx="6" fill="#0190F8"/>
<path d="M10.7422 8.15974C10.7422 8.79326 11.2558 9.30684 11.8893 9.30684H12.627C13.668 9.30684 14.5119 10.1507 14.5119 11.1917V16.3561C14.5119 16.9881 15.0242 17.5004 15.6562 17.5004C16.2882 17.5004 16.8006 16.9881 16.8006 16.3561V10.4512C16.8006 9.81918 17.3129 9.30684 17.945 9.30684C18.577 9.30684 19.0893 8.79312 19.0893 8.16111C19.0893 7.52758 18.5757 7.01263 17.9422 7.01263H11.8893C11.2558 7.01263 10.7422 7.52621 10.7422 8.15974Z" fill="#F6F8F9"/>
<path d="M5.88965 16.3526C5.88965 16.9865 6.40355 17.5004 7.03748 17.5004C7.67142 17.5004 8.18532 16.9865 8.18532 16.3526V15.7131C8.18532 14.726 8.98554 13.9257 9.97266 13.9257H11.0818C11.7181 13.9257 12.2339 13.4099 12.2339 12.7735C12.2339 12.1372 11.7181 11.6214 11.0818 11.6214H9.34259C8.70345 11.6214 8.18532 11.1032 8.18532 10.4641C8.18532 9.82496 8.70345 9.30684 9.34259 9.30684H11.5344C12.168 9.30684 12.6815 8.79326 12.6815 8.15974C12.6815 7.52621 12.168 7.01263 11.5344 7.01263H9.28559C7.41006 7.01263 5.88965 8.53305 5.88965 10.4086V16.3526Z" fill="#F6F8F9"/>
</svg>
